<?xml version="1.0" encoding="UTF-8" standalone="no"?>
<svg
   xmlns:dc="http://purl.org/dc/elements/1.1/"
   xmlns:cc="http://creativecommons.org/ns#"
   xmlns:rdf="http://www.w3.org/1999/02/22-rdf-syntax-ns#"
   xmlns:svg="http://www.w3.org/2000/svg"
   xmlns="http://www.w3.org/2000/svg"
   xmlns:sodipodi="http://sodipodi.sourceforge.net/DTD/sodipodi-0.dtd"
   xmlns:inkscape="http://www.inkscape.org/namespaces/inkscape"
   viewBox="0 0 400 225"
   version="1.1"
   id="svg54"
   sodipodi:docname="icon.svg"
   inkscape:version="0.92.4 (5da689c313, 2019-01-14)">
  <metadata
     id="metadata58">
    <rdf:RDF>
      <cc:Work
         rdf:about="">
        <dc:format>image/svg+xml</dc:format>
        <dc:type
           rdf:resource="http://purl.org/dc/dcmitype/StillImage" />
        <dc:title>image hotpots</dc:title>
      </cc:Work>
    </rdf:RDF>
  </metadata>
  <sodipodi:namedview
     pagecolor="#ffffff"
     bordercolor="#666666"
     borderopacity="1"
     objecttolerance="10"
     gridtolerance="10"
     guidetolerance="10"
     inkscape:pageopacity="0"
     inkscape:pageshadow="2"
     inkscape:window-width="1920"
     inkscape:window-height="1129"
     id="namedview56"
     showgrid="false"
     inkscape:zoom="3.17"
     inkscape:cx="187.5214"
     inkscape:cy="98.192918"
     inkscape:window-x="-8"
     inkscape:window-y="-8"
     inkscape:window-maximized="1"
     inkscape:current-layer="image_hotpots" />
  <defs
     id="defs4">
    <style
       id="style2">
      .cls-1 {
        fill: #fff;
      }

      .cls-2 {
        fill: #34495e;
      }

      .cls-3 {
        opacity: 0.25;
      }

      .cls-4 {
        fill: #e58833;
      }

      .cls-5 {
        fill: #97baf6;
      }

      .cls-6 {
        fill: none;
      }
    </style>
  </defs>
  <title
     id="title6">image hotpots</title>
  <g
     data-name="image hotpots"
     id="image_hotpots">
    <rect
       class="cls-1"
       x="118.96"
       y="51.790001"
       width="169.92"
       height="122.69"
       id="rect8"
       style="fill:#ffffff" />
    <polygon
       class="cls-2"
       points="191.96,117.3 239.43,69.6 280,110.63 290,121.03 290,175.5 118,175.5 118,152.62 157.01,113.13 176.5,132.88 "
       id="polygon10"
       style="fill:#34495e" />
    <circle
       class="cls-2"
       cx="146.28999"
       cy="78.5"
       r="18.08"
       id="circle12"
       style="fill:#34495e" />
    <g
       id="g20"
       transform="translate(31.230284,-16.719243)">
      <g
         class="cls-3"
         id="g16"
         style="opacity:0.25">
        <path
           d="M 262.27,79 A 20.27,20.27 0 1 0 242,99.26 20.27,20.27 0 0 0 262.27,79 Z"
           id="path14"
           inkscape:connector-curvature="0" />
      </g>
      <path
         class="cls-4"
         d="M 258.22,74.94 A 20.27,20.27 0 1 0 237.95,95.21 20.27,20.27 0 0 0 258.22,74.94 Z"
         id="path18"
         inkscape:connector-curvature="0"
         style="fill:#e58833" />
    </g>
    <path
       class="cls-1"
       d="m 280.11937,60.106215 a 1.58,1.58 0 0 1 -1.58,1.58 h -6.84 v 6.84 a 1.58,1.58 0 0 1 -1.58,1.58 h -3.15 a 1.58,1.58 0 0 1 -1.58,-1.58 v -6.84 h -6.79 a 1.58,1.58 0 0 1 -1.58,-1.58 v -3.15 a 1.58,1.58 0 0 1 1.58,-1.58 h 6.84 v -6.84 a 1.58,1.58 0 0 1 1.58,-1.58 h 3.15 a 1.58,1.58 0 0 1 1.58,1.58 v 6.84 h 6.84 a 1.58,1.58 0 0 1 1.58,1.58 z"
       id="path22"
       inkscape:connector-curvature="0"
       style="fill:#ffffff" />
    <rect
       style="fill:none"
       y="0"
       x="0"
       id="rect50"
       height="225"
       width="400"
       class="cls-6" />
  </g>
</svg>
